<svg id="Arte" xmlns="http://www.w3.org/2000/svg" viewBox="0 0 70 70"><defs><style>.cls-1{fill:#c1dcd8;}.cls-2{fill:#fff;}</style></defs><title>interface</title><path class="cls-1" d="M35,69A34,34,0,1,1,69,35,34,34,0,0,1,35,69ZM35,3.44A31.56,31.56,0,1,0,66.56,35,31.6,31.6,0,0,0,35,3.44Z"/><g id="fmuOdf"><path class="cls-2" d="M29.53,16.51a3.62,3.62,0,0,0,2.95-1c1.91-1.59,3.12-1.6,5,0a4.47,4.47,0,0,0,3.25,1.05c2.52-.08,3.27.48,3.89,2.91a4.07,4.07,0,0,0,1.94,2.63C48.68,23.43,49,24.45,48,26.82A3.67,3.67,0,0,0,48,30c.71,1.5.82,2.95-.55,4.19-.56.51-.13,1,.12,1.39C50,39.71,52.4,43.86,54.78,48c.31.54.91,1.07.46,1.78s-1.18.46-1.8.42c-1.31-.09-2.61-.19-3.9-.4a1.21,1.21,0,0,0-1.53.83c-.58,1.36-1.22,2.71-1.83,4.06-.2.44-.41.91-1,1s-.92-.41-1.19-.87c-2.23-3.85-4.48-7.7-6.68-11.58-.45-.8-.89-1.25-1.83-.8a.84.84,0,0,1-.63.09c-1.67-.86-2.08.45-2.69,1.49q-3,5.28-6.1,10.55c-.3.51-.53,1.19-1.3,1.11s-.86-.68-1.1-1.19c-.56-1.22-1.16-2.45-1.66-3.7a1.32,1.32,0,0,0-1.7-.95,36.47,36.47,0,0,1-3.91.4c-.58,0-1.27.21-1.67-.43s.06-1.16.36-1.68c2.31-4,4.61-8,7-12,.55-.92.94-1.63-.06-2.6s-.65-2.14-.18-3.21a4.45,4.45,0,0,0,0-3.66c-.85-2.13-.46-3.29,1.53-4.55a4.14,4.14,0,0,0,2-2.61C26,17,26.7,16.5,29.53,16.51Zm.53,1.77c-2.42,0-2.47,0-3,2.13a5,5,0,0,1-2.57,3.15c-1,.57-1.47,1.31-.86,2.46a4.85,4.85,0,0,1,0,4.77,1.63,1.63,0,0,0,.86,2.46,4.9,4.9,0,0,1,2.69,3.66,1.73,1.73,0,0,0,2.21,1.63,4.62,4.62,0,0,1,4.19,1.33,1.77,1.77,0,0,0,2.84,0,4.6,4.6,0,0,1,4.18-1.36A1.72,1.72,0,0,0,42.81,37a4.86,4.86,0,0,1,2.66-3.67,1.72,1.72,0,0,0,.87-2.6,4.76,4.76,0,0,1,0-4.53,1.72,1.72,0,0,0-.83-2.61A4.71,4.71,0,0,1,42.87,20a1.88,1.88,0,0,0-2.41-1.73,4.6,4.6,0,0,1-4.07-1.35,1.77,1.77,0,0,0-2.84,0A4.11,4.11,0,0,1,30.06,18.28ZM44.93,52.65a28.41,28.41,0,0,0,1.86-3.76c.33-.63.69-1.11,1.49-1l3.12.32c.35,0,.77.23,1,0s-.12-.72-.29-1q-2.84-4.93-5.71-9.86c-.3-.5-.41-1.42-1-1.34s-.56,1-.73,1.55c-.71,2.36-1.38,2.87-3.83,2.87-.44,0-.88,0-1.31,0-1.17.1-1.39.49-.83,1.49q2.31,4,4.64,8.06C43.8,50.76,44.34,51.65,44.93,52.65Zm-20-.16c.14-.07.25-.08.28-.14,2.07-3.55,4.13-7.09,6.18-10.65.62-1.08-.18-1.45-1-1.35-3.12.41-5-.77-5.38-4,0-.23-.17-.55-.47-.56s-.39.32-.52.54L17.66,47.47c-.41.7-.13.85.52.78,1-.11,2.09-.16,3.12-.34A1.58,1.58,0,0,1,23.25,49,24,24,0,0,0,24.94,52.49Z"/><path class="cls-2" d="M34.92,22.32a1.06,1.06,0,0,1,1,.72,10.59,10.59,0,0,1,.56,1.61A1.24,1.24,0,0,0,38,25.74a11.25,11.25,0,0,1,1.83.07,1,1,0,0,1,.93.79.86.86,0,0,1-.47,1c-2,1-2.53,2.39-1.42,4.38a.89.89,0,0,1-.27,1.18.94.94,0,0,1-1.21,0c-.15-.09-.29-.19-.43-.29-2.09-1.52-1.61-1.6-3.88,0-.45.32-.92.77-1.53.35s-.39-1.07-.22-1.66a3.56,3.56,0,0,1,.24-.74,1.65,1.65,0,0,0-.75-2.49c-.66-.42-1.85-.75-1.46-1.87s1.5-.79,2.31-.69c1.49.19,1.87-.69,2.16-1.84C34,23.23,34.07,22.43,34.92,22.32ZM33.1,27.81c1,.53.85,1.26.88,2.09.71-.69,1.39-.37,2.23-.15-.49-.91,0-1.4.52-2A1.94,1.94,0,0,1,35,26.52,2.13,2.13,0,0,1,33.1,27.81Z"/></g></svg>