<svg id="Arte" xmlns="http://www.w3.org/2000/svg" viewBox="0 0 70 70"><defs><style>.cls-1{fill:#c1dcd8;}.cls-2{fill:#fff;}</style></defs><title>interface</title><path class="cls-1" d="M35,69A34,34,0,1,1,69,35,34,34,0,0,1,35,69ZM35,3.44A31.56,31.56,0,1,0,66.56,35,31.6,31.6,0,0,0,35,3.44Z"/><g id="_5A6Wbw" data-name="5A6Wbw"><path class="cls-2" d="M35,45.66c-2,0-4,0-6,0a1.93,1.93,0,0,1-2.14-1.5,23.37,23.37,0,0,0-3.59-7c-5.88-7.91.1-19,9.38-20.5A14.18,14.18,0,0,1,49.13,29.62a9.85,9.85,0,0,1-1.57,6.25C45.82,38.65,44,41.37,43,44.55c-.29.91-1,1.1-1.87,1.11Zm-.06-1.93c1.79,0,3.58,0,5.37,0,.63,0,1.13-.1,1.34-.77.94-3,2.76-5.44,4.35-8.05A7.87,7.87,0,0,0,47.23,31,12.17,12.17,0,0,0,33.76,18.44c-8.35.66-14.39,10.71-9,17.81a23,23,0,0,1,3.45,6.45,1.38,1.38,0,0,0,1.56,1C31.51,43.69,33.22,43.73,34.92,43.73Z"/><path class="cls-2" d="M35,46.88c2.1,0,4.2,0,6.3,0,1.1,0,1.62.41,1.57,1.55A38.8,38.8,0,0,1,42.77,53a7.92,7.92,0,0,1-8.22,6.61A8.12,8.12,0,0,1,27,51.73c-.05-1.09,0-2.19,0-3.28s.46-1.6,1.59-1.58C30.75,46.91,32.89,46.88,35,46.88Zm0,4.91c-1.66,0-3.31,0-5,0-.67,0-1.1.13-1,.95a6.06,6.06,0,0,0,5.52,4.93c3.09.14,5.87-1.88,6.34-4.55.17-1-.14-1.38-1.16-1.34C38.15,51.82,36.58,51.78,35,51.79ZM34.94,50h5.24c.45,0,.91,0,.94-.63s-.44-.75-1-.75H30c-.45,0-.91,0-.94.63s.45.74,1,.74Z"/><path class="cls-2" d="M34.1,12.7c0-.44,0-.88,0-1.31s.24-1,.83-1,.85.34,1,.86a8.14,8.14,0,0,1,0,2.87c-.07.54-.31,1.07-1,1s-.84-.54-.86-1.12,0-.87,0-1.31Z"/><path class="cls-2" d="M44.66,12.92c.77.14,1.1.62.82,1.23A25.27,25.27,0,0,1,43.86,17a.79.79,0,0,1-1,.29.76.76,0,0,1-.49-.95,11.17,11.17,0,0,1,1.81-3.14C44.26,13,44.52,13,44.66,12.92Z"/><path class="cls-2" d="M51.54,20.12c.56,0,.87.09,1,.45a.77.77,0,0,1-.25,1.05c-.92.58-1.87,1.13-2.83,1.65a.78.78,0,0,1-1-.3.73.73,0,0,1,0-1A9.61,9.61,0,0,1,51.54,20.12Z"/><path class="cls-2" d="M25.13,12.94a1,1,0,0,1,.91.42c.5.85,1,1.71,1.48,2.59a.87.87,0,0,1-.29,1.25A.84.84,0,0,1,26,16.86a24.59,24.59,0,0,1-1.47-2.59A.88.88,0,0,1,25.13,12.94Z"/><path class="cls-2" d="M20.65,23.35a9,9,0,0,1-3.16-2c-.45-.55-.11-1.09.61-1.23a7.88,7.88,0,0,1,3.48,1.94C21.9,22.68,21.5,23.34,20.65,23.35Z"/><path class="cls-2" d="M52.69,40.31c-.15.81-.64,1.12-1.33.8a25,25,0,0,1-2.61-1.49.86.86,0,0,1-.37-1.14.73.73,0,0,1,.85-.48,9.42,9.42,0,0,1,3.27,1.86C52.62,40,52.64,40.17,52.69,40.31Z"/><path class="cls-2" d="M21.69,38.77a.93.93,0,0,1-.45.84c-.86.52-1.72,1-2.6,1.51a.84.84,0,0,1-1.16-.27.85.85,0,0,1,.28-1.26,25.14,25.14,0,0,1,2.61-1.5A.85.85,0,0,1,21.69,38.77Z"/><path class="cls-2" d="M53,29.81c.48,0,1,0,1.43,0s.86.25.88.77a.83.83,0,0,1-.88.92c-1,0-2,0-3,0a.84.84,0,0,1-.89-.92c0-.51.4-.75.89-.77S52.43,29.82,53,29.81Z"/><path class="cls-2" d="M17.14,29.83c.53,0,1.05,0,1.57,0a.78.78,0,0,1,.76.76.77.77,0,0,1-.65.86,13.26,13.26,0,0,1-3.39,0,.76.76,0,0,1-.69-.82.79.79,0,0,1,.83-.82c.53,0,1.05,0,1.57,0Z"/></g></svg>