<svg id="Arte" xmlns="http://www.w3.org/2000/svg" viewBox="0 0 70 70"><defs><style>.cls-1{fill:#c1dcd8;}.cls-2{fill:#fff;}</style></defs><title>interface</title><path class="cls-1" d="M35,69A34,34,0,1,1,69,35,34,34,0,0,1,35,69ZM35,3.44A31.56,31.56,0,1,0,66.56,35,31.6,31.6,0,0,0,35,3.44Z"/><g id="_8HK5xy" data-name="8HK5xy"><path class="cls-2" d="M57.1,35.12V49.28c0,1.37-.16,1.53-1.5,1.53s-2.54,0-3.81,0a1,1,0,0,1-1.18-1.11c0-.31,0-.62,0-.93V21.31a8,8,0,0,1,0-.85c.08-.94.39-1.25,1.34-1.26,1.22,0,2.43,0,3.65,0s1.49.31,1.5,1.52ZM52.36,35c0,4.13,0,8.25,0,12.38,0,1.84-.24,1.69,1.67,1.69,1.28,0,1.28,0,1.28-1.32q0-12.42,0-24.83c0-2.26.3-1.86-1.92-1.95-.84,0-1,.26-1,1.06C52.38,26.32,52.36,30.65,52.36,35Z"/><path class="cls-2" d="M41.21,36.63V23.92c0-1.32.23-1.55,1.52-1.55s2.49,0,3.73,0a1.09,1.09,0,0,1,1.25,1.16c0,.29,0,.57,0,.85V48.8a8.44,8.44,0,0,1,0,1,1,1,0,0,1-1.1,1c-1.32,0-2.65,0-4,0s-1.39-.21-1.4-1.38Zm1.79,0c0,3.55,0,7.11,0,10.67,0,2-.24,1.76,1.76,1.77C46,49.05,46,49,46,47.81Q46,37,46,26.13c0-2.27.37-1.92-2-2-.79,0-1,.26-1,1C43,29,43,32.79,43,36.6Z"/><path class="cls-2" d="M38.26,39V49.37c0,1.23-.21,1.44-1.42,1.44H33.2c-1.19,0-1.45-.24-1.45-1.43,0-3.56,0-7.11,0-10.67,0-3.33,0-6.67,0-10,0-1.34.25-1.59,1.57-1.59s2.43,0,3.65,0c1,0,1.29.28,1.29,1.33C38.27,32,38.26,35.51,38.26,39Zm-1.78,0c0-2.74,0-5.47,0-8.21,0-2.22.32-1.88-1.92-1.95-.83,0-1,.26-1,1.06,0,5.73,0,11.46,0,17.19,0,2.14-.36,1.85,1.95,1.91.79,0,1-.26,1-1C36.45,45,36.48,42,36.48,39.05Z"/><path class="cls-2" d="M22.38,41.34V33.2c0-1.13.21-1.33,1.33-1.34,1.33,0,2.66,0,4,0a1,1,0,0,1,1.16,1,6.44,6.44,0,0,1,0,.76V49c0,1.63-.19,1.81-1.78,1.81H23.54c-.9,0-1.15-.25-1.16-1.17C22.37,46.87,22.38,44.1,22.38,41.34Zm1.78-.09c0,2,0,4,0,6s-.23,1.74,1.76,1.8c.85,0,1.13-.26,1.12-1.11,0-4.15,0-8.31,0-12.46,0-2.06.25-1.83-1.94-1.87-.7,0-.94.24-.93.94C24.18,36.79,24.16,39,24.16,41.25Z"/><path class="cls-2" d="M19.43,44.52c0,1.66,0,3.33,0,5,0,1-.26,1.28-1.32,1.29h-4c-.89,0-1.2-.29-1.2-1.16q0-5.17,0-10.35c0-.88.31-1.15,1.19-1.16h4c1.08,0,1.32.25,1.32,1.37C19.43,41.18,19.43,42.85,19.43,44.52Zm-1.79-.05c0-.85,0-1.69,0-2.54,0-2.3.4-2-2.09-2-.68,0-.88.25-.87.9,0,2.05,0,4.11,0,6.17,0,2.36-.5,2,2.21,2.07.55,0,.74-.23.73-.76C17.62,47,17.64,45.74,17.64,44.47Z"/></g></svg>