<svg id="Arte" xmlns="http://www.w3.org/2000/svg" viewBox="0 0 110 110"><defs><style>.cls-1{fill:#fff;}.cls-2{fill:#c1dcd8;}</style></defs><title>2</title><g id="t3c0e4.tif"><path class="cls-1" d="M32.05,65.18c-.6,3-.6,3-3.86,3-2.28,0-4.56,0-6.83,0-1.18,0-1.65-.48-1.65-1.69q0-12.87,0-25.75c0-1.22.49-1.68,1.66-1.68q4.38,0,8.76,0c1.14,0,1.79.41,1.69,1.64-.07.91.36,1.26,1.26,1.51,3,.83,5.64.78,8.18-1.34C43,39.49,45,38.52,46.82,37.25c3.65-2.56,7.43-2.71,11.43-.9C62,38,65.77,39.54,69.51,41.19c2.48,1.09,5.06.46,7.6.56.78,0,.88-.66.9-1.26,0-1.07.67-1.39,1.62-1.39,3,0,6,0,8.93,0,1.15,0,1.73.45,1.73,1.66q0,12.87,0,25.75c0,1.17-.48,1.72-1.67,1.71q-4.47,0-8.94,0c-1.18,0-1.71-.53-1.67-1.7,0-.64,0-1.28,0-1.93,0-.91-.49-1.26-1.35-1.15-.69.08-1.38.22-2.07.3-2.27.26-2.27.25-1.86,2.36.45,2.31-1.94,4.91-4.45,4.67a3.66,3.66,0,0,0-2.64.83c-1.7,1.16-3.56,2.6-5.29,3.08-3.44,1-7,3-10.88.87-1.82-1-3.78-1.83-5.59-2.9-2-1.19-4-2.33-6-3.58S34,66.49,32.05,65.18ZM31.82,53c0,2,.06,4,0,6a3.43,3.43,0,0,0,1.38,3A80.87,80.87,0,0,0,50.74,72.74a17.12,17.12,0,0,0,2,.71c.5.17,1.06.42,1.45-.11.49-.68-.15-1.07-.54-1.46-1.72-1.75-3.43-3.51-5.2-5.2-.81-.77-.86-1.34-.06-2.17s1.43-.62,2.16.13Q53.76,68,57.08,71.2c.57.56,1.15,1.64,2.14.72s-.07-1.54-.62-2.12c-1.08-1.15-2.24-2.21-3.32-3.36-.67-.73-2-1.25-.62-2.64s1.88-.24,2.63.5Q59.66,66.64,62,69c.52.53,1,1,1.76.34s.37-1.35-.23-1.94c-1.21-1.19-2.37-2.42-3.6-3.59-.81-.76-1.3-1.36-.23-2.41s1.55-.49,2.27.25c1.76,1.8,3.55,3.56,5.32,5.33.61.61,1.27,1.21,2.08.39s0-1.37-.54-1.86C63.61,60.33,58.36,55.18,53.16,50a1.52,1.52,0,0,0-2.26-.21,54.41,54.41,0,0,1-4.8,2.88,9.16,9.16,0,0,1-12-3.12,3.44,3.44,0,0,1-.64-2.81c.16-.62.82-1.38-.48-1.51s-1.12.74-1.13,1.51ZM78,52.62h0c0-1.81,0-3.62,0-5.43,0-2.4,0-2.55-2.45-2.38a19.52,19.52,0,0,1-10.28-2.14c-3-1.46-6.09-2.66-9.16-3.93a7.1,7.1,0,0,0-6.87.5c-3.94,2.49-7.84,5.06-11.79,7.55-1.05.66-1,1.25-.21,2.07a6.39,6.39,0,0,0,8,.9c2-1.14,3.93-2.31,5.81-3.59,1.14-.78,1.88-.6,2.83.36,4.57,4.59,9.2,9.11,13.82,13.65.66.64,1.24,1.35,2.39,1.14,2.12-.38,4.26-.67,6.4-.89A1.43,1.43,0,0,0,78,58.74C78,56.7,78,54.66,78,52.62Zm-55.29,1c0,2.46,0,4.91,0,7.36.06,4.54-.69,3.94,4.16,4.06,1.56,0,2-.53,2-2-.07-5.49,0-11,0-16.47,0-4.88,1-4.22-4.39-4.31-1.29,0-1.75.49-1.73,1.76C22.75,47.23,22.71,50.44,22.71,53.65Zm58.47,0c0,2.52,0,5,0,7.54,0,4.23-.51,3.77,3.84,3.88,1.61,0,2.15-.53,2.12-2.13-.07-5.55,0-11.1,0-16.65,0-4.45.69-4-4.19-4-1.28,0-1.78.49-1.76,1.76C81.21,47.23,81.18,50.44,81.18,53.65Z"/><path class="cls-1" d="M76.14,35.61a2.89,2.89,0,0,1-1.64-1.27c-.46-.55-.08-1,.3-1.36,2-2,4-3.94,5.92-5.93a1,1,0,0,1,1.75.08c.45.54,1.39,1,.54,1.85-2.08,2.12-4.19,4.2-6.3,6.28A2.82,2.82,0,0,1,76.14,35.61Z"/><path class="cls-1" d="M28.36,83.39A3.56,3.56,0,0,1,26.75,82c-.45-.59,0-1,.4-1.35,1.93-2,3.89-3.87,5.81-5.83a1,1,0,0,1,1.77.07c.47.54,1.33,1,.5,1.87C33.14,78.89,31,81,28.92,83.08A2.21,2.21,0,0,1,28.36,83.39Z"/><path class="cls-1" d="M56.39,88.71c0,1.39,0,2.78,0,4.18,0,1-.6,1.26-1.46,1.27s-1.5-.24-1.5-1.25q0-4.18,0-8.36c0-1,.62-1.27,1.49-1.28s1.52.36,1.49,1.43c0,1.33,0,2.67,0,4Z"/><path class="cls-1" d="M40,18.83c.62-.06.79.42,1,.83,1.14,2.56,2.25,5.13,3.4,7.68.38.85.07,1.33-.73,1.61s-1.45.74-1.92-.32c-1.17-2.67-2.38-5.32-3.5-8C37.85,19.8,38.89,18.83,40,18.83Z"/><path class="cls-1" d="M67.2,29.28a1.52,1.52,0,0,1-1.44-2.36c1-2.36,2.07-4.7,3.07-7.06.39-.91.86-1.27,1.87-.81s1.39.89.88,2c-1.14,2.43-2.17,4.9-3.26,7.35C68.11,28.87,67.89,29.39,67.2,29.28Z"/><path class="cls-1" d="M67.34,80.61c.6,0,.77.44,1,.86,1.12,2.5,2.22,5,3.35,7.52.37.81.21,1.33-.63,1.64s-1.53.78-2-.38c-1.12-2.57-2.3-5.11-3.4-7.69C65.2,81.65,66.21,80.59,67.34,80.61Z"/><path class="cls-1" d="M44.52,82.07c-.09.24-.17.52-.29.78-1.07,2.4-2.17,4.79-3.2,7.2-.43,1-1,1.1-1.94.68s-1.24-.9-.78-1.89c1.13-2.44,2.19-4.91,3.26-7.37.3-.68.71-1.08,1.48-.72C43.65,81,44.47,81.09,44.52,82.07Z"/><path class="cls-1" d="M56.39,21.34c0,1.28,0,2.56,0,3.85,0,.94-.39,1.38-1.35,1.39s-1.63-.2-1.63-1.32c0-2.74,0-5.48,0-8.23,0-1,.69-1.18,1.54-1.19s1.44.29,1.42,1.3C56.37,18.54,56.39,19.94,56.39,21.34Z"/><path class="cls-1" d="M83.34,81.77A3.54,3.54,0,0,1,82,83.24c-.61.38-1-.19-1.32-.54-1.9-1.89-3.77-3.82-5.71-5.68-.82-.79-.59-1.34.11-2s1.14-.91,1.89-.14c1.95,2,3.95,4,5.93,6A1.2,1.2,0,0,1,83.34,81.77Z"/><path class="cls-1" d="M28.39,26.5a5.81,5.81,0,0,1,.79.57C31.13,29,33,31,35,32.87c.84.81.53,1.36-.14,2s-1.17.88-1.9.13c-1.92-2-3.88-3.89-5.81-5.83-.36-.36-.85-.75-.42-1.34A3.26,3.26,0,0,1,28.39,26.5Z"/></g><path class="cls-2" d="M55,109.07A54.07,54.07,0,1,1,109.07,55,54.14,54.14,0,0,1,55,109.07ZM55,4.79A50.21,50.21,0,1,0,105.21,55,50.26,50.26,0,0,0,55,4.79Z"/></svg>