<svg id="Arte" xmlns="http://www.w3.org/2000/svg" viewBox="0 0 110 110"><defs><style>.cls-1{fill:#fff;}.cls-2{fill:#c1dcd8;}</style></defs><title>2</title><g id="X79cXA.tif"><path class="cls-1" d="M47.28,26.33H69.56c5,0,7.68,2.64,7.68,7.62V50.73c0,2.1,0,2.1,2.18,2.11,2.72,0,5.45,0,8.18,0,3,0,4.91,1.58,5,4.58q.23,8.73,0,17.47c-.07,3-1.91,4.52-5,4.59-.9,0-1.79.06-2.68,0-1.21-.1-1.55.42-1.5,1.56.07,1.73,0,3.47,0,5.21,0,.44.24,1.08-.27,1.26s-.76-.45-1.08-.76c-2-2-4.12-4-6.09-6.08a3.85,3.85,0,0,0-3.11-1.25c-4.61.06-9.21,0-13.82,0A8,8,0,0,1,56,79a4.1,4.1,0,0,1-2.67-3.51,57.49,57.49,0,0,1-.14-7.19c0-1.16-.41-1.67-1.57-1.53h-.28c-2.21,0-4.59-.44-6.57.24s-3.26,2.87-4.86,4.39c-2.48,2.37-4.92,4.78-7.38,7.17-.26.25-.51.7-.89.58s-.31-.73-.31-1.12c0-3.29,0-6.58,0-9.87,0-1-.32-1.44-1.38-1.4-1.78.06-3.57,0-5.36,0-4.25,0-7.19-2.69-7.24-7q-.15-13.39,0-26.79a6.75,6.75,0,0,1,7.07-6.7C32.05,26.32,39.66,26.33,47.28,26.33ZM34.08,72.79l.37.14c2.66-2.58,5.34-5.13,7.95-7.75a3.41,3.41,0,0,1,2.74-1.1c2,.07,4,0,5.92,0,2.13,0,2.12,0,2.13-2.2,0-1.45,0-2.91.07-4.36.25-3.18,2-4.69,5.15-4.7,4.84,0,9.68,0,14.52,0,1.23,0,1.62-.35,1.61-1.6-.06-5.77,0-11.55,0-17.33,0-3.2-1.46-4.68-4.64-4.68q-22.54,0-45.1,0c-3.14,0-4.52,1.42-4.52,4.58q0,12.75,0,25.5c0,3.26,1.46,4.74,4.72,4.77,2.53,0,5.07.05,7.61,0,1.18,0,1.55.42,1.52,1.56C34,68,34.08,70.4,34.08,72.79Zm46.28,8.4.36-.16c0-1,0-1.94,0-2.89-.09-1.2.44-1.58,1.56-1.55,1.69,0,3.38,0,5.07,0,2,0,2.42-.45,2.43-2.39q0-8,0-16.06c0-2-.43-2.4-2.42-2.4H58.46c-1.93,0-2.38.47-2.38,2.44q0,8,0,15.92c0,2,.44,2.48,2.48,2.49,5.12,0,10.24,0,15.36,0A3.76,3.76,0,0,1,77,77.87C78.06,79,79.23,80.09,80.36,81.19Z"/><path class="cls-1" d="M46.54,47.86H30.9a9.53,9.53,0,0,1-1.41-.08c-.6-.08-.67-.55-.65-1.06s.17-.83.7-.88c.37,0,.75,0,1.12,0H63.49c.7,0,1,.33,1,1s-.43,1-1.08,1c-.94,0-1.88,0-2.81,0Z"/><path class="cls-1" d="M42.45,39.19c-4,0-8.07,0-12.1,0-.67,0-1.48.17-1.52-.94s.81-1.09,1.54-1.09H54.72c.61,0,1.41-.15,1.58.77S55.87,39.2,55,39.2C50.8,39.18,46.62,39.19,42.45,39.19Z"/><path class="cls-1" d="M38,56.36H30.23c-.75,0-1.43,0-1.4-1.09s.7-1,1.37-1H45.66c.74,0,1.43,0,1.4,1.09s-.71,1-1.37,1Z"/></g><path class="cls-2" d="M55,109.07A54.07,54.07,0,1,1,109.07,55,54.14,54.14,0,0,1,55,109.07ZM55,4.79A50.21,50.21,0,1,0,105.21,55,50.26,50.26,0,0,0,55,4.79Z"/></svg>