<svg id="Arte" xmlns="http://www.w3.org/2000/svg" viewBox="0 0 110 110"><defs><style>.cls-1{fill:#c1dcd8;}.cls-2{fill:#fff;}</style></defs><title>2</title><path class="cls-1" d="M55,109.07A54.07,54.07,0,1,1,109.07,55,54.14,54.14,0,0,1,55,109.07ZM55,4.79A50.21,50.21,0,1,0,105.21,55,50.26,50.26,0,0,0,55,4.79Z"/><g id="ix8lVQ.tif"><path class="cls-2" d="M23.44,70.12c0-3.72,0-7.45,0-11.18,0-1.4.35-2,1.88-2,2.55.11,5.11,0,7.67,0,.78,0,1.52,0,1.53,1.11,0,.62.38.83,1,.67l.31-.07C45.1,56.94,42.89,57.1,50.93,61c5.85,2.81,11.63,5.76,17.44,8.66a3.93,3.93,0,0,1,2.37,2.44c.22.84.71.77,1.33.55,1.26-.43,2.51-.87,3.79-1.25a5.5,5.5,0,0,1,4,10.24C73.1,84.46,66.29,87.21,59.49,90a5.83,5.83,0,0,1-4.5-.3q-9.33-3.76-18.68-7.47c-.79-.31-1.8-1.14-2,.69-.05.55-.74.52-1.21.52-2.77,0-5.53,0-8.3,0-1.17,0-1.41-.63-1.41-1.63C23.45,77.9,23.44,74,23.44,70.12Zm11.05,0c0,2.35,0,4.69,0,7A1.65,1.65,0,0,0,35.66,79q10.23,4.07,20.45,8.19a3.35,3.35,0,0,0,2.63.15c6.54-2.71,13.09-5.4,19.62-8.15a2.82,2.82,0,0,0,1.73-3.76c-.59-1.45-1.88-1.93-3.75-1.32-2.58.85-5.2,1.6-7.69,2.67a16,16,0,0,1-11.38.42L47.21,74.08c-.92-.28-1.71-.49-1.27-1.83s1.18-1.07,2.11-.78c3.85,1.21,7.7,2.47,11.59,3.55a11.33,11.33,0,0,0,6.76-.35c.72-.25,1.49-.58,1.61-1.4s-.77-1.18-1.41-1.5Q55.82,66.4,45,61.07a5.73,5.73,0,0,0-3.56-.6c-1.89.32-3.76.72-5.65,1a1.36,1.36,0,0,0-1.31,1.61C34.53,65.46,34.49,67.81,34.49,70.15Zm-2.75-.08c0-2.18,0-4.37,0-6.55-.07-4.33.77-3.74-3.95-3.83-1.29,0-1.63.5-1.62,1.71.05,5.11,0,10.22,0,15.33.05,4.65-.89,3.83,4.09,4,1.14,0,1.48-.43,1.46-1.5C31.71,76.14,31.74,73.11,31.74,70.07Z"/><path class="cls-2" d="M66.18,54.26c-.81,1.85-1.63,3.68-2.4,5.54-.48,1.18-1.11,1.31-1.67.17-1.47-3-3.67-3.39-6.49-2.07-.41.18-1,.48-1.35.08s0-.91.19-1.32c1.06-2.62,2.16-5.21,3.23-7.82a5.79,5.79,0,0,0-1.46-5.64L56,43c-2.5-1.9-2.56-1.92-1.56-5a4.49,4.49,0,0,0-.49-3.37c-.57-1.35-.44-2.31,1-3a5,5,0,0,0,2.81-3.82A1.92,1.92,0,0,1,60.14,26a5.11,5.11,0,0,0,4.51-1.48,1.91,1.91,0,0,1,3-.06A5.54,5.54,0,0,0,72.5,26a1.68,1.68,0,0,1,2.17,1.52A5.83,5.83,0,0,0,78,31.94a1.45,1.45,0,0,1,.77,2.11,6.11,6.11,0,0,0,.06,5.81c.51,1,0,1.55-.77,2.11-1.11.78-2.3,1.41-2.86,2.88a5.79,5.79,0,0,0,.22,5c1.14,2.23,2.06,4.56,3.06,6.86.15.36.48.8.09,1.17s-.76.1-1.06,0c-3-1.43-5.33-.86-6.88,2.28-.52,1.06-1.09.69-1.49-.24-.8-1.9-1.65-3.78-2.48-5.67ZM57,39.11c-.23.91.07,1.34.57,1.62A4.67,4.67,0,0,1,60,44.08a1.31,1.31,0,0,0,1.65,1.11,4.48,4.48,0,0,1,3.66,1.18,1.25,1.25,0,0,0,1.95,0,4.24,4.24,0,0,1,3.64-1.22A1.37,1.37,0,0,0,72.61,44a4.32,4.32,0,0,1,2.24-3.12,1.44,1.44,0,0,0,.62-2.15,3.84,3.84,0,0,1,0-3.52A1.52,1.52,0,0,0,74.72,33a4,4,0,0,1-2.06-2.87,1.43,1.43,0,0,0-1.82-1.3,4.18,4.18,0,0,1-3.49-1.21,1.34,1.34,0,0,0-2.08,0,4.31,4.31,0,0,1-3.64,1.23A1.3,1.3,0,0,0,60,29.9a4.67,4.67,0,0,1-2.52,3.29c-.48.27-.9.64-.65,1.28A5.38,5.38,0,0,1,57,39.11Zm1.43,15.25c1.58-.54,2.66-.46,3.42.83.37.62.81.34,1.05-.21.61-1.41,1.26-2.81,1.78-4.26.34-1-.7-2.24-2-2.65a1.48,1.48,0,0,0-2.08,1.08C60,50.79,59.24,52.39,58.41,54.36Zm12.12-6.42c-2,0-3,1.45-2.23,3.22.51,1.22,1.07,2.42,1.57,3.64.34.82.71.83,1.21.16s.93-1.36,1.92-1c1.29.42,1.06-.26.73-1-.6-1.36-1.21-2.7-1.8-4.07A1.23,1.23,0,0,0,70.53,47.94Z"/><path class="cls-2" d="M81.33,23.54a4.42,4.42,0,0,1-.48.74c-.7.73-1.43,1.42-2.13,2.15s-1.19.21-1.71-.28-.91-1-.19-1.73,1.35-1.35,2-2c.34-.33.69-.77,1.22-.36A3.42,3.42,0,0,1,81.33,23.54Z"/><path class="cls-2" d="M48.54,38.39c-1.07-.23-2.87.56-2.58-1.52.33-2.38,2.35-.92,3.57-1.23,1-.25,1.6.2,1.56,1.36C51,39,49.46,38.09,48.54,38.39Z"/><path class="cls-2" d="M56.53,24.87A4.46,4.46,0,0,1,55,26.66c-.5.44-.88.06-1.23-.28-.61-.6-1.18-1.23-1.81-1.8s-.88-1.2-.1-2,1.26-.73,2,0S55.64,24.12,56.53,24.87Z"/><path class="cls-2" d="M56.23,48.7a3.26,3.26,0,0,1-.41.61c-.74.76-1.5,1.5-2.24,2.25s-1.1.31-1.6-.2-1-1-.23-1.71,1.42-1.43,2.14-2.13c.3-.3.65-.64,1.1-.3A3,3,0,0,1,56.23,48.7Z"/><path class="cls-2" d="M81.32,50.3a2.74,2.74,0,0,1-1.19,1.49c-.53.42-.89,0-1.23-.32-.57-.55-1.11-1.15-1.71-1.68s-1.06-1.2-.17-2.08,1.42-.64,2.08.14A16.12,16.12,0,0,1,81.32,50.3Z"/><path class="cls-2" d="M67.7,19.15c0,2.4-.22,2.72-1.65,2.57-.1,0-.21,0-.31,0-.74-.2-1.15-2.62-.74-4.19.28-1.09,1.16-.85,1.8-.72C68.31,17.1,67.42,18.43,67.7,19.15Z"/><path class="cls-2" d="M84.26,35.61c.81.21,2.38-.64,2.32,1.43,0,.83-.29,1.31-1.19,1.3s-1.69,0-2.54,0S81.56,37.9,81.56,37s.28-1.42,1.27-1.37C83.25,35.63,83.67,35.61,84.26,35.61Z"/><path class="cls-2" d="M66.19,44.14A7.27,7.27,0,0,1,59,36.93a7.42,7.42,0,0,1,7.4-7.25A7.22,7.22,0,0,1,73.49,37,7,7,0,0,1,66.19,44.14Zm4.56-7.21a4.22,4.22,0,0,0-4.42-4.41,4.45,4.45,0,1,0-.1,8.9A4.3,4.3,0,0,0,70.75,36.93Z"/></g></svg>