<svg id="Arte" xmlns="http://www.w3.org/2000/svg" viewBox="0 0 110 110"><defs><style>.cls-1{fill:#c1dcd8;}.cls-2{fill:#fff;}</style></defs><title>2</title><path class="cls-1" d="M55,109.07A54.07,54.07,0,1,1,109.07,55,54.14,54.14,0,0,1,55,109.07ZM55,4.79A50.21,50.21,0,1,0,105.21,55,50.26,50.26,0,0,0,55,4.79Z"/><g id="EN9vXY.tif"><path class="cls-2" d="M58.79,81.06V78.32c0-.63.14-1.31.73-1.51,1.18-.4,1.12-1.11.93-2.11-.56-2.8-1-5.62-1.51-8.41a6.3,6.3,0,0,1,1.48-5.82c3.29-3.7,6.47-7.49,9.64-11.28A5.48,5.48,0,0,1,74.51,47c.93,0,1.12-.37,1.08-1.15-.11-2.3.08-4.61-.2-6.92-.38-3.09,1.19-5.61,3.82-6.28,2.82-.71,5.29.68,6.38,3.77C87.2,41,88.7,45.56,90.27,50.13a5.58,5.58,0,0,1-.49,4.52c-2.5,4.94-5,9.9-7.56,14.79-1.31,2.48-1.35,5.16-1.7,7.81,0,.4,0,.75.46.9,1.27.42,1.43,1.48,1.45,2.6,0,1.34.06,2.69.06,4,0,2.52-.45,3-2.89,2.86-4.4-.3-8.78-.71-13.17-1.08-1.76-.15-3.53-.33-5.29-.5s-2.26-.67-2.32-2.42c0-.86,0-1.72,0-2.58Zm15.93-3.27c2.54.08,2.47.07,2.84-2.3s.43-4.88,1.66-7.15c2.54-4.73,4.9-9.56,7.35-14.34a3.4,3.4,0,0,0,.55-2.62q-2.33-7-4.74-14A2,2,0,0,0,79.92,36a1.82,1.82,0,0,0-1.51,2.16c.43,4-.07,8.07.48,12.06A6.86,6.86,0,0,1,77.22,56c-1.21,1.37-2.29,2.85-3.44,4.27-.71.87-1.53,1.73-2.7.83s-.53-1.89.18-2.78c1.28-1.59,2.58-3.16,3.81-4.79.7-.92,1-2,.05-2.91s-1.9-.13-2.59.68C69.24,55.17,66,59,62.69,62.86a2.87,2.87,0,0,0-.75,2.52c.61,3.32,1.26,6.64,1.77,10A1.65,1.65,0,0,0,65.47,77ZM64.26,80v0c-.32,0-.64,0-1,0-1,0-1.16.56-1.12,1.35s-.2,1.59,1,1.69l15,1.28c.47,0,.93.08,1.07-.64.3-1.66-.18-2.49-1.85-2.63C73,80.59,68.63,80.28,64.26,80Z"/><path class="cls-2" d="M34.52,41.68c-.06,1.45-.06,2.91-.22,4.35-.09.86.2,1,1,.94a5.34,5.34,0,0,1,4.5,2.09c3.31,4,6.61,7.93,9.95,11.87a6.08,6.08,0,0,1,1.12,5.32c-.52,3-1,5.93-1.58,8.88-.13.7-.24,1.22.67,1.48a1.53,1.53,0,0,1,1,1.65c0,1.88,0,3.77,0,5.65a2,2,0,0,1-2.08,2.15c-5.94.5-11.87,1-17.81,1.56-.53,0-1.07,0-1.61,0a1.8,1.8,0,0,1-2.12-2c0-1.93.16-3.86.27-5.79a1.42,1.42,0,0,1,.79-1.33c1-.4.92-1.09.93-2,0-5.11-2.72-9.19-4.87-13.49-1.4-2.78-2.83-5.55-4.24-8.33A5.83,5.83,0,0,1,19.76,50c1.55-4.58,3.06-9.17,4.66-13.74a5.22,5.22,0,0,1,5.86-3.71c2.68.48,4.25,2.56,4.24,5.61ZM31.36,39c.1-1.73-.12-2.92-1.58-3.21s-2.11.66-2.53,1.92C25.86,41.86,24.46,46,23,50.19a4.17,4.17,0,0,0,.24,3.55c1.93,3.78,3.67,7.67,5.73,11.38a25.41,25.41,0,0,1,3.28,11.17c.06,1.21.59,1.56,1.75,1.44,3.42-.34,6.84-.66,10.27-.89,1.05-.07,1.52-.43,1.69-1.48.5-3.24,1-6.48,1.68-9.68a3.43,3.43,0,0,0-.87-3.23c-3.1-3.57-6.16-7.19-9.24-10.78a9,9,0,0,0-1-1,1.4,1.4,0,0,0-1.65-.18,1.42,1.42,0,0,0-.69,1.36,2.58,2.58,0,0,0,.73,1.89c1.22,1.44,2.41,2.9,3.61,4.35.73.88,1.37,1.86.19,2.78s-2,0-2.7-.83q-2-2.49-4-5a5,5,0,0,1-1.16-3.92C31.44,46.9,30.77,42.68,31.36,39Zm1.2,45.28c4.65-.43,9.29-.87,13.93-1.27,1.65-.14,1.16-1.49,1.24-2.34.1-1-.88-.72-1.45-.68-4.64.37-9.28.85-13.93,1.14-1.46.1-1.81.68-1.75,2C30.66,84.62,31.72,84.19,32.56,84.25Z"/><path class="cls-2" d="M64.86,45.92a1.39,1.39,0,0,1-.65-.16l-8.64-4.54-8.65,4.54a1.38,1.38,0,0,1-2-1.46l1.65-9.63-7-6.81a1.4,1.4,0,0,1,.78-2.38L50,24.08l4.32-8.76a1.45,1.45,0,0,1,2.5,0l4.32,8.76,9.66,1.4a1.4,1.4,0,0,1,.77,2.38l-7,6.81,1.65,9.63a1.4,1.4,0,0,1-.55,1.36A1.45,1.45,0,0,1,64.86,45.92Zm-9.29-7.66a1.39,1.39,0,0,1,.65.16L63,42l-1.3-7.57a1.43,1.43,0,0,1,.4-1.23l5.5-5.36L60,26.73A1.39,1.39,0,0,1,59,26l-3.4-6.89L52.17,26a1.39,1.39,0,0,1-1.05.76l-7.6,1.1L49,33.19a1.38,1.38,0,0,1,.4,1.23L48.12,42l6.8-3.57A1.36,1.36,0,0,1,55.57,38.26Z"/></g></svg>