<svg id="Arte" xmlns="http://www.w3.org/2000/svg" viewBox="0 0 100 50"><defs><style>.cls-1{fill:#26234e;}.cls-2{fill:#b1b1b0;}.cls-3{fill:#ffcf00;}</style></defs><title>logo</title><rect class="cls-1" x="32.02" y="15.69" width="8.62" height="28.08"/><rect class="cls-2" x="20.36" y="23.24" width="8.62" height="20.53"/><rect class="cls-2" x="8.74" y="31.76" width="8.62" height="12.01"/><polygon class="cls-1" points="63.81 36.88 63.81 43.77 44.12 43.77 44.12 15.69 52.74 15.69 52.74 36.88 63.81 36.88"/><polygon class="cls-3" points="31.79 6.23 36.33 14.08 40.86 6.23 31.79 6.23"/><path class="cls-1" d="M76.12,33.56V43.77H67.37V15.69h12a17.74,17.74,0,0,1,6.82,1,8.35,8.35,0,0,1,3.7,3.15,8.59,8.59,0,0,1,1.37,4.75,8.23,8.23,0,0,1-2.8,6.48A10.88,10.88,0,0,1,81,33.56Zm-.13-6h2.88q3.81,0,3.81-2.79c0-1.76-1.18-2.64-3.52-2.64H76Z"/></svg>