<svg id="Arte" xmlns="http://www.w3.org/2000/svg" viewBox="0 0 390 220"><defs><style>.cls-1{fill:#1d1d1b;}.cls-2{fill:#26234e;}.cls-3{fill:#b1b1b0;}.cls-4{fill:#ffcf00;}</style></defs><title>logo</title><path class="cls-1" d="M26.38,197.33C25.84,194,22.91,192,19.59,192c-5.22,0-8.27,4.27-8.27,9.38s3,9.38,8.27,9.38c3.88,0,6.89-3.45,7.12-7.17h1.23c-.45,4.74-4,8.23-8.35,8.23-6,0-9.49-4.6-9.49-10.44s3.51-10.44,9.49-10.44c7.07,0,8,6.14,8,6.42Z"/><path class="cls-1" d="M36.23,196.64c4.22,0,6.59,3.43,6.59,7.51s-2.37,7.51-6.59,7.51-6.59-3.44-6.59-7.51,2.37-7.51,6.59-7.51m0,14.09c3.6,0,5.53-3.15,5.53-6.58s-1.93-6.6-5.53-6.6-5.53,3.16-5.53,6.6,1.93,6.58,5.53,6.58"/><path class="cls-1" d="M45.31,197h1.06V200h.05a5.33,5.33,0,0,1,5.14-3.41c5,0,5.11,4.05,5.11,5.81v8.88H55.61v-9.07c0-1.48-.17-4.69-4.08-4.69-3.21,0-5.16,2.48-5.16,6v7.76H45.31Z"/><path class="cls-1" d="M60.3,206.55c.17,2.65,2.15,4.18,4.75,4.18,1.87,0,4.55-.55,4.55-3s-2.46-2.79-4.92-3.29-4.94-1.15-4.94-4.08,2.77-3.68,5.19-3.68c3,0,5.31,1.31,5.31,4.58H69.18c0-2.6-1.84-3.67-4.25-3.67-2,0-4.13.73-4.13,2.77,0,2.29,2.46,2.65,4.78,3.15,2.85.53,5.08,1.21,5.08,4.22s-3.1,4-5.61,4c-3.27,0-5.73-1.75-5.81-5.1Z"/><path class="cls-1" d="M84.59,211.32H83.53v-3.07h-.06a5.3,5.3,0,0,1-5.13,3.4c-5,0-5.11-4.05-5.11-5.8V197h1.06V206c0,1.49.17,4.69,4.08,4.69,3.21,0,5.16-2.48,5.16-6V197h1.06Z"/><rect class="cls-1" x="87.97" y="191.39" width="1.06" height="19.93"/><path class="cls-1" d="M97.69,197.89H94.56v10c0,2.31,1.09,2.53,3.09,2.48v.92c-2.17.14-4.27-.17-4.15-3.4v-10H90.85V197H93.5V192.5h1.06V197h3.13Z"/><path class="cls-1" d="M105.56,196.64c4.22,0,6.59,3.43,6.59,7.51s-2.37,7.51-6.59,7.51S99,208.22,99,204.15s2.37-7.51,6.59-7.51m0,14.09c3.61,0,5.53-3.15,5.53-6.58s-1.92-6.6-5.53-6.6-5.53,3.16-5.53,6.6,1.93,6.58,5.53,6.58"/><path class="cls-1" d="M115.69,200.15h.09c.55-1.87,2.9-3.38,5.5-3.27V198a4.81,4.81,0,0,0-4,1.39,5.39,5.39,0,0,0-1.62,4.13v7.85h-1V197h1Z"/><path class="cls-1" d="M122.65,191.39h1.06v2.87h-1.06Zm0,5.58h1.06v14.35h-1.06Z"/><path class="cls-1" d="M137.67,208.67c0,.83,0,1.73,1,1.73l.79-.09v.9l-.88.11c-1.67,0-1.92-.92-1.92-2.09v-.76h-.06a5.52,5.52,0,0,1-5.33,3.19c-2.71,0-4.8-1-4.8-4,0-3.35,2.9-4.05,5.28-4.25,4.74-.33,4.94-.64,4.94-3,0-.63-.73-2.81-4-2.81-2.57,0-4.27,1.34-4.41,3.82h-1.06c.14-3.16,2.09-4.75,5.47-4.75,2.52,0,5,.78,5,3.74Zm-1.06-5.5c-.84.94-3.13.83-5.19,1.12-2.52.28-3.94,1.16-3.94,3.32,0,1.73,1.26,3.12,3.77,3.12a5,5,0,0,0,5.36-4.88Z"/><path class="cls-1" d="M160,208.36a6.51,6.51,0,0,1-5.66,3.3c-3.32,0-5.92-1.71-5.92-5.09s2.9-4.79,5.19-6.25c-1.23-1.53-2.71-3.07-2.71-5.17s2.13-3.43,4.19-3.43,4.19,1.2,4.19,3.43c0,2.85-2.18,4-4.14,5.45l4.75,5.83a9.33,9.33,0,0,0,.68-3.32h1.05a12.53,12.53,0,0,1-1,4.22l3.24,4h-1.43Zm-5.83-7.26c-2.06,1.34-4.69,2.65-4.69,5.47,0,2.63,2.43,4.16,4.86,4.16a5.66,5.66,0,0,0,5-3.24Zm4.05-5.95c0-1.5-1.59-2.51-3.13-2.51s-3.13,1-3.13,2.51c0,1.93,1.68,3.33,2.57,4.66,1.62-1.05,3.69-2.37,3.69-4.66"/><path class="cls-1" d="M190.64,201.55v9.77h-1.06v-4.24h-.06c-1,2.9-4,4.72-7.54,4.72-6,0-9.38-4.61-9.38-10.34s3.4-10.55,9.41-10.55c4.1,0,7.59,2.48,8.29,6.64h-1.17A7,7,0,0,0,182,192c-5.4,0-8.21,4.53-8.21,9.49s2.74,9.27,8.21,9.27c4.75,0,7.73-3.23,7.54-8.12h-7.34v-1.06Z"/><path class="cls-1" d="M194.24,204.29c-.06,3.37,1.73,6.44,5.27,6.44a5,5,0,0,0,5.15-4.27h1.05c-.55,3.35-2.79,5.19-6.2,5.19-4.18,0-6.39-3.29-6.33-7.25s2-7.77,6.33-7.77c4.5,0,6.51,3.55,6.31,7.66Zm10.53-.93c-.07-3-2-5.8-5.26-5.8s-5,3-5.27,5.8Z"/><path class="cls-1" d="M208.81,206.55c.17,2.65,2.16,4.18,4.75,4.18,1.87,0,4.55-.55,4.55-3s-2.46-2.79-4.91-3.29-4.94-1.15-4.94-4.08,2.76-3.68,5.19-3.68c3,0,5.3,1.31,5.3,4.58h-1.06c0-2.6-1.84-3.67-4.24-3.67-2,0-4.14.73-4.14,2.77,0,2.29,2.46,2.65,4.78,3.15,2.85.53,5.08,1.21,5.08,4.22s-3.1,4-5.61,4c-3.27,0-5.72-1.75-5.81-5.1Z"/><path class="cls-1" d="M227,197.89h-3.13v10c0,2.31,1.09,2.53,3.1,2.48v.92c-2.17.14-4.27-.17-4.16-3.4v-10h-2.65V197h2.65V192.5h1.06V197H227Z"/><path class="cls-1" d="M239.55,208.67c0,.83,0,1.73.95,1.73l.79-.08v.89l-.87.11c-1.67,0-1.92-.92-1.92-2.09v-.76h-.06a5.52,5.52,0,0,1-5.34,3.19c-2.71,0-4.8-1-4.8-4,0-3.35,2.9-4.05,5.28-4.24,4.75-.35,4.94-.65,4.94-3,0-.64-.72-2.82-4-2.82-2.57,0-4.27,1.35-4.41,3.83h-1.06c.14-3.15,2.09-4.75,5.47-4.75,2.51,0,5,.79,5,3.74Zm-1.05-5.5c-.84,1-3.13.83-5.2,1.11-2.51.28-3.94,1.18-3.94,3.33,0,1.73,1.26,3.12,3.78,3.12a5,5,0,0,0,5.36-4.88Zm-8.13-8.66a3.57,3.57,0,0,1,.62-1.73,1.9,1.9,0,0,1,1.53-.78,4.47,4.47,0,0,1,1.95.75,4.73,4.73,0,0,0,1.9.84c.78,0,1.17-.86,1.26-1.59h.81a3.52,3.52,0,0,1-.59,1.7,1.83,1.83,0,0,1-1.54.81,3.92,3.92,0,0,1-1.92-.81,4,4,0,0,0-1.95-.78c-.79,0-1.15.87-1.26,1.59Z"/><path class="cls-1" d="M248.85,196.64c4.22,0,6.59,3.43,6.59,7.51s-2.37,7.51-6.59,7.51-6.59-3.44-6.59-7.51,2.38-7.51,6.59-7.51m0,14.09c3.6,0,5.53-3.15,5.53-6.58s-1.93-6.6-5.53-6.6-5.53,3.16-5.53,6.6,1.93,6.58,5.53,6.58"/><path class="cls-1" d="M281.41,197.33C280.88,194,278,192,274.63,192c-5.23,0-8.27,4.27-8.27,9.38s3,9.38,8.27,9.38c3.87,0,6.89-3.45,7.11-7.17H283c-.45,4.74-4,8.23-8.34,8.23-6,0-9.5-4.6-9.5-10.44s3.52-10.44,9.5-10.44c7.06,0,8,6.14,8,6.42Z"/><path class="cls-1" d="M291.27,196.64c4.21,0,6.59,3.43,6.59,7.51s-2.38,7.51-6.59,7.51-6.59-3.44-6.59-7.51,2.37-7.51,6.59-7.51m0,14.09c3.6,0,5.53-3.15,5.53-6.58s-1.93-6.6-5.53-6.6-5.54,3.16-5.54,6.6,1.93,6.58,5.54,6.58"/><path class="cls-1" d="M300.34,197h1.06V200h.06a5.31,5.31,0,0,1,5.13-3.41c5.06,0,5.11,4.05,5.11,5.81v8.88h-1.06v-9.07c0-1.48-.16-4.69-4.08-4.69-3.21,0-5.16,2.48-5.16,6v7.76h-1.06Z"/><path class="cls-1" d="M320.11,197.89H317v10c0,2.31,1.09,2.53,3.1,2.48v.92c-2.17.14-4.27-.17-4.16-3.4v-10h-2.65V197h2.65V192.5H317V197h3.13Z"/><path class="cls-1" d="M332.65,208.67c0,.83,0,1.73.94,1.73l.78-.09v.9l-.86.11c-1.67,0-1.92-.92-1.92-2.1v-.75h-.07a5.49,5.49,0,0,1-5.33,3.18c-2.71,0-4.8-1-4.8-4.05,0-3.34,2.9-4,5.28-4.24,4.75-.33,4.94-.64,4.94-3,0-.64-.72-2.82-4-2.82-2.57,0-4.27,1.35-4.41,3.83h-1.06c.14-3.15,2.09-4.74,5.47-4.74,2.51,0,5,.77,5,3.73Zm-1.06-5.5c-.85,1-3.13.83-5.2,1.11-2.51.29-3.93,1.18-3.93,3.32,0,1.74,1.25,3.13,3.77,3.13a5,5,0,0,0,5.36-4.88Zm-2.35-12.26h1.42l-3.74,3.91h-1Z"/><path class="cls-1" d="M336.28,191.38h1.05V200h.07a5.56,5.56,0,0,1,5.43-3.37c4.22,0,6.23,3.18,6.23,7.17,0,6.84-4.24,7.84-6.23,7.84a5.54,5.54,0,0,1-5.43-3.54h-.07v3.21h-1.05ZM348,203.81c0-3.18-1.73-6.26-5.17-6.26-3.73,0-5.47,2.66-5.47,6.26s1.57,6.92,5.47,6.92,5.17-3.63,5.17-6.92"/><path class="cls-1" d="M351.8,191.39h1.07v2.87H351.8Zm0,5.58h1.07v14.35H351.8Z"/><rect class="cls-1" x="356.5" y="191.39" width="1.06" height="19.93"/><rect class="cls-2" x="113.96" y="50.8" width="38.85" height="126.54"/><rect class="cls-3" x="61.46" y="84.85" width="38.85" height="92.49"/><rect class="cls-3" x="9.09" y="123.22" width="38.85" height="54.12"/><polygon class="cls-2" points="257.24 146.28 257.24 177.34 168.52 177.34 168.52 50.8 207.36 50.8 207.36 146.28 257.24 146.28"/><polygon class="cls-4" points="112.96 8.2 133.39 43.58 153.81 8.2 112.96 8.2"/><path class="cls-2" d="M312.68,131.36v46h-39.4V50.8h54q20.22,0,30.74,4.63a37.29,37.29,0,0,1,16.68,14.19A38.53,38.53,0,0,1,380.91,91q0,18.07-12.61,29.2t-33.65,11.13Zm-.56-27.16h13q17.14,0,17.15-12.62,0-11.85-15.85-11.86H312.12Z"/></svg>