<svg id="Arte" xmlns="http://www.w3.org/2000/svg" viewBox="0 0 50 50"><defs><style>.cls-1{fill:#fff;}</style></defs><title>socialwpp</title><path class="cls-1" d="M40.78,0H9.22A9.22,9.22,0,0,0,0,9.22V40.78A9.22,9.22,0,0,0,9.22,50H40.78A9.22,9.22,0,0,0,50,40.78V9.22A9.22,9.22,0,0,0,40.78,0ZM37.45,36.49A16,16,0,0,1,25.4,41.28a15.52,15.52,0,0,1-9.46-3.4,2.3,2.3,0,0,0-1.65-.5c-3,.16-6.06.29-9.08.41-.81,0-.87-.08-.47-.78,1.55-2.71,3.07-5.45,4.7-8.12a3.37,3.37,0,0,0,.24-2.4,15.84,15.84,0,0,1,3-11A15.78,15.78,0,0,1,23.07,9a16.12,16.12,0,0,1,17.4,8.79A16,16,0,0,1,37.45,36.49Z"/><path class="cls-1" d="M15.67,17.41a12.5,12.5,0,0,0-2.16,10.4,2,2,0,0,1-.22,1.49c-.8,1.33-1.56,2.69-2.34,4-.34.59-.3.67.4.65,1.5,0,3-.07,4.51-.17a1.71,1.71,0,0,1,1.39.52,12.28,12.28,0,0,0,8.66,3.35,10.86,10.86,0,0,0,1.51,0A12.74,12.74,0,1,0,15.67,17.41Zm15,17.52a6.41,6.41,0,0,1-4.38-.64,11,11,0,0,1-4-3.39,22.18,22.18,0,0,1-4.59-9.37,8.53,8.53,0,0,1-.11-1.43,5,5,0,0,1,2.92-4.86c.79-.4,1.16-.3,1.61.45.68,1.15,1.36,2.3,2,3.46.46.8.35,1.24-.43,1.74a7.37,7.37,0,0,1-1.08.56,1.07,1.07,0,0,0-.69,1.32,6,6,0,0,0,.42,1.37,20.31,20.31,0,0,0,3.44,5.08,1,1,0,0,0,1.44.23c.42-.28.86-.52,1.29-.78.72-.42,1.23-.31,1.62.39.59,1,1.18,2.08,1.73,3.14A1.7,1.7,0,0,1,30.68,34.93Z"/></svg>