<?xml version="1.0" encoding="utf-8"?>
<!-- Generator: Adobe Illustrator 24.0.1, SVG Export Plug-In . SVG Version: 6.00 Build 0)  -->
<svg version="1.1" id="Arte" xmlns="http://www.w3.org/2000/svg" xmlns:xlink="http://www.w3.org/1999/xlink" x="0px" y="0px"
	 viewBox="0 0 35 35" style="enable-background:new 0 0 35 35;" xml:space="preserve">
<style type="text/css">
	.st0{fill:#FFFFFF;}
</style>
<title>social</title>
<circle class="st0" cx="17.5" cy="17.5" r="4.6"/>
<g>
	<g>
		<path class="st0" d="M32.8,17.6c0,7.6-6,14.3-13.6,15.1c-3.2,0.3-6.3-0.3-9.1-1.9c-0.3-0.2-0.6-0.2-1-0.1
			c-1.9,0.6-3.7,1.3-5.6,1.9c-0.4,0.1-0.7,0.2-1-0.1c-0.3-0.3-0.2-0.7-0.1-1c0.6-1.9,1.2-3.7,1.9-5.6c0.1-0.4,0.1-0.6-0.1-1
			C-1,15.8,4.5,4.3,14.8,2.5C23.2,1,31.3,6.7,32.6,15.1C32.7,15.9,32.8,16.8,32.8,17.6z M11.5,7.9c-0.6-0.1-1.3,0.2-1.8,0.8
			C9.4,9.1,9,9.4,8.6,9.8c-0.5,0.5-0.7,1.1-0.7,1.8c0.1,2.7,0.9,5.2,2.3,7.5c3,4.9,7.4,7.6,13.2,8c0.6,0,1.1-0.1,1.5-0.4
			c0.6-0.6,1.3-1.2,1.8-1.8c1.1-1.3,0.5-3.1-1-3.7c-1-0.4-2-0.7-2.9-1.1c-1.1-0.5-2-0.3-2.9,0.6c-0.6,0.6-0.9,0.6-1.7,0.1
			c-1.5-1.1-2.7-2.3-3.8-3.8c-0.7-0.9-0.6-1.1,0.1-1.9c0.7-0.8,0.9-1.6,0.5-2.6c-0.4-1-0.8-2-1.1-3C13.5,8.3,12.9,7.9,11.5,7.9z"/>
	</g>
</g>
</svg>
