<svg id="Arte" xmlns="http://www.w3.org/2000/svg" viewBox="0 0 35 35"><defs><style>.cls-1{fill:#fff;}</style></defs><title>social</title><path class="cls-1" d="M27.14,2.23H7.86A5.63,5.63,0,0,0,2.23,7.86V27.14a5.63,5.63,0,0,0,5.63,5.63h9.61V20.58c0-.4,0-.4-.39-.4H14.62c-.37,0-.52-.21-.54-.59V16.17c0-.5.17-.67.67-.67h2.46c.21,0,.27-.06.27-.26,0-.71,0-1.43,0-2.14a6.93,6.93,0,0,1,.46-2.62A4.82,4.82,0,0,1,21.5,7.54a5.78,5.78,0,0,1,1.31-.14h2.93c.39,0,.59.18.59.57q0,1.62,0,3.24c0,.42-.2.6-.66.61H24a3.82,3.82,0,0,0-.83,0,1,1,0,0,0-.86.94c-.09.84,0,1.68,0,2.52,0,.19.12.17.24.17h3c.5,0,.68.16.68.66v3.33c0,.5-.19.69-.7.69H22.58c-.29,0-.29,0-.29.29v12.3h4.85a5.63,5.63,0,0,0,5.63-5.63V7.86A5.63,5.63,0,0,0,27.14,2.23Z"/></svg>